<?xml version="1.0" encoding="UTF-8"?>
<!-- Generated by Pixelmator Pro 3.4.1 -->
<svg width="493" height="161" viewBox="0 0 493 161" xmlns="http://www.w3.org/2000/svg">
    <g id="Group">
        <path id="Path-copy" fill="#d5d5d5" stroke="none" d="M 246.5 145 C 239.369446 145 233.336807 143.988195 228.402084 141.964584 C 223.467361 139.940974 221 137.471298 221 134.555557 L 221 108.444443 C 221 105.57222 223.490972 103.113424 228.472916 101.068054 C 233.454859 99.022685 239.463888 98 246.5 98 C 253.536112 98 259.545135 99.022685 264.527069 101.068054 C 269.509023 103.113424 272 105.57222 272 108.444443 L 272 134.555557 C 272 137.471298 269.532644 139.940974 264.597931 141.964584 C 259.663198 143.988195 253.630554 145 246.5 145 Z M 246.5 113.731949 C 250.702779 113.731949 254.929169 113.177086 259.179169 112.06736 C 263.429169 110.957639 265.813894 109.771759 266.333344 108.50972 C 265.813894 107.247686 263.440969 106.050929 259.214569 104.919449 C 254.98819 103.787964 250.75 103.222221 246.5 103.222221 C 242.202779 103.222221 237.988195 103.777084 233.856247 104.88681 C 229.724309 105.996531 227.327784 107.204168 226.666672 108.50972 C 227.327784 109.815277 229.724309 111.012037 233.856247 112.099998 C 237.988195 113.187965 242.202779 113.731949 246.5 113.731949 Z M 246.5 126.722221 C 248.483337 126.722221 250.395838 126.635183 252.237503 126.461105 C 254.079168 126.287033 255.838196 126.036804 257.514587 125.710419 C 259.190979 125.384028 260.772919 124.981481 262.260406 124.502777 C 263.747915 124.024073 265.10556 123.480092 266.333344 122.870834 L 266.333344 115.037498 C 265.10556 115.646756 263.747915 116.19074 262.260406 116.669449 C 260.772919 117.148148 259.190979 117.550692 257.514587 117.877083 C 255.838196 118.203473 254.079168 118.453705 252.237503 118.627777 C 250.395838 118.801849 248.483337 118.888885 246.5 118.888885 C 244.516663 118.888885 242.580551 118.801849 240.691666 118.627777 C 238.80278 118.453705 237.020142 118.203473 235.34375 117.877083 C 233.667358 117.550692 232.097219 117.148148 230.633331 116.669449 C 229.169444 116.19074 227.847224 115.646756 226.666672 115.037498 L 226.666672 122.870834 C 227.847224 123.480092 229.169444 124.024073 230.633331 124.502777 C 232.097219 124.981481 233.667358 125.384028 235.34375 125.710419 C 237.020142 126.036804 238.80278 126.287033 240.691666 126.461105 C 242.580551 126.635183 244.516663 126.722221 246.5 126.722221 Z M 246.5 139.777771 C 248.672221 139.777771 250.879857 139.625458 253.12291 139.320831 C 255.365962 139.016205 257.431936 138.613658 259.320831 138.11319 C 261.209727 137.612732 262.791677 137.046992 264.066681 136.41597 C 265.341665 135.784958 266.097219 135.143061 266.333344 134.49028 L 266.333344 128.093048 C 265.10556 128.702311 263.747915 129.246297 262.260406 129.725006 C 260.772919 130.203705 259.190979 130.606252 257.514587 130.932648 C 255.838196 131.259033 254.079168 131.509262 252.237503 131.683334 C 250.395838 131.857407 248.483337 131.944443 246.5 131.944443 C 244.516663 131.944443 242.580551 131.857407 240.691666 131.683334 C 238.80278 131.509262 237.020142 131.259033 235.34375 130.932648 C 233.667358 130.606252 232.097219 130.203705 230.633331 129.725006 C 229.169444 129.246297 227.847224 128.702311 226.666672 128.093048 L 226.666672 134.555557 C 226.902776 135.208338 227.646525 135.839355 228.897919 136.448608 C 230.149302 137.057872 231.719442 137.612732 233.608337 138.11319 C 235.497223 138.613658 237.574997 139.016205 239.84166 139.320831 C 242.108332 139.625458 244.327779 139.777771 246.5 139.777771 Z"/>
        <path id="DataStorageAuthority" fill="#d5d5d5" fill-rule="evenodd" stroke="none" d="M 469.703125 43.898438 L 474.367188 43.898438 C 473.773438 45.50782 472.453125 49.179657 470.40625 54.914063 C 468.875 59.226585 467.59375 62.742172 466.5625 65.460938 C 464.125 71.867218 462.40625 75.77343 461.40625 77.179688 C 460.40625 78.585945 458.6875 79.289063 456.25 79.289063 C 455.65625 79.289063 455.199219 79.265625 454.878906 79.21875 C 454.558594 79.171875 454.164063 79.085938 453.695313 78.960938 L 453.695313 75.117188 C 454.429688 75.320313 454.960938 75.445313 455.289063 75.492188 C 455.617188 75.539063 455.90625 75.5625 456.15625 75.5625 C 456.9375 75.5625 457.511719 75.433594 457.878906 75.175781 C 458.246094 74.917969 458.554688 74.601563 458.804688 74.226563 C 458.882813 74.101563 459.164063 73.460945 459.648438 72.304688 C 460.132813 71.14843 460.484375 70.289063 460.703125 69.726563 L 451.421875 43.898438 L 456.203125 43.898438 L 462.929688 64.335938 Z M 441.53125 36.890625 L 445.796875 36.890625 L 445.796875 43.898438 L 449.804688 43.898438 L 449.804688 47.34375 L 445.796875 47.34375 L 445.796875 63.726563 C 445.796875 64.60157 446.09375 65.1875 446.6875 65.484375 C 447.015625 65.65625 447.5625 65.742188 448.328125 65.742188 C 448.53125 65.742188 448.75 65.738281 448.984375 65.730469 C 449.21875 65.722656 449.492188 65.703125 449.804688 65.671875 L 449.804688 69 C 449.320313 69.140625 448.816406 69.242188 448.292969 69.304688 C 447.769531 69.367188 447.203125 69.398438 446.59375 69.398438 C 444.625 69.398438 443.289063 68.894539 442.585938 67.886719 C 441.882813 66.878899 441.53125 65.57032 441.53125 63.960938 L 441.53125 47.34375 L 438.132813 47.34375 L 438.132813 43.898438 L 441.53125 43.898438 Z M 430.023438 44.015625 L 434.3125 44.015625 L 434.3125 69 L 430.023438 69 Z M 430.023438 34.570313 L 434.3125 34.570313 L 434.3125 39.351563 L 430.023438 39.351563 Z M 414.15625 43.898438 L 418.164063 43.898438 L 418.164063 48.234375 C 418.492188 47.390617 419.296875 46.363289 420.578125 45.152344 C 421.859375 43.941399 423.335938 43.335938 425.007813 43.335938 C 425.085938 43.335938 425.21875 43.34375 425.40625 43.359375 C 425.59375 43.375 425.914063 43.40625 426.367188 43.453125 L 426.367188 47.90625 C 426.117188 47.859375 425.886719 47.828125 425.675781 47.8125 C 425.464844 47.796875 425.234375 47.789063 424.984375 47.789063 C 422.859375 47.789063 421.226563 48.472649 420.085938 49.839844 C 418.945313 51.207039 418.375 52.781242 418.375 54.5625 L 418.375 69 L 414.15625 69 Z M 397.304688 66.28125 C 400.101563 66.28125 402.019531 65.222664 403.058594 63.105469 C 404.097656 60.988274 404.617188 58.632828 404.617188 56.039063 C 404.617188 53.695297 404.242188 51.78907 403.492188 50.320313 C 402.304688 48.007797 400.257813 46.851563 397.351563 46.851563 C 394.773438 46.851563 392.898438 47.83593 391.726563 49.804688 C 390.554688 51.773445 389.96875 54.148422 389.96875 56.929688 C 389.96875 59.601578 390.554688 61.828117 391.726563 63.609375 C 392.898438 65.390633 394.757813 66.28125 397.304688 66.28125 Z M 397.46875 43.171875 C 400.703156 43.171875 403.4375 44.249992 405.671875 46.40625 C 407.90625 48.562508 409.023438 51.734352 409.023438 55.921875 C 409.023438 59.968773 408.039063 63.312485 406.070313 65.953125 C 404.101563 68.593765 401.046906 69.914063 396.90625 69.914063 C 393.453094 69.914063 390.710938 68.746109 388.679688 66.410156 C 386.648438 64.074203 385.632813 60.937523 385.632813 57 C 385.632813 52.781227 386.703125 49.42189 388.84375 46.921875 C 390.984375 44.42186 393.859344 43.171875 397.46875 43.171875 Z M 360.648438 34.453125 L 364.867188 34.453125 L 364.867188 47.296875 C 365.867188 46.031242 366.765625 45.140625 367.5625 44.625 C 368.921875 43.734367 370.617188 43.289063 372.648438 43.289063 C 376.289093 43.289063 378.757813 44.562485 380.054688 47.109375 C 380.757813 48.500008 381.109375 50.429672 381.109375 52.898438 L 381.109375 69 L 376.773438 69 L 376.773438 53.179688 C 376.773438 51.33593 376.539063 49.984383 376.070313 49.125 C 375.304688 47.749992 373.867188 47.0625 371.757813 47.0625 C 370.007813 47.0625 368.421875 47.664055 367 48.867188 C 365.578125 50.07032 364.867188 52.343735 364.867188 55.6875 L 364.867188 69 L 360.648438 69 Z M 348.15625 36.890625 L 352.421875 36.890625 L 352.421875 43.898438 L 356.429688 43.898438 L 356.429688 47.34375 L 352.421875 47.34375 L 352.421875 63.726563 C 352.421875 64.60157 352.71875 65.1875 353.3125 65.484375 C 353.640625 65.65625 354.1875 65.742188 354.953125 65.742188 C 355.15625 65.742188 355.375 65.738281 355.609375 65.730469 C 355.84375 65.722656 356.117188 65.703125 356.429688 65.671875 L 356.429688 69 C 355.945313 69.140625 355.441406 69.242188 354.917969 69.304688 C 354.394531 69.367188 353.828125 69.398438 353.21875 69.398438 C 351.25 69.398438 349.914063 68.894539 349.210938 67.886719 C 348.507813 66.878899 348.15625 65.57032 348.15625 63.960938 L 348.15625 47.34375 L 344.757813 47.34375 L 344.757813 43.898438 L 348.15625 43.898438 Z M 324.835938 43.898438 L 324.835938 60.5625 C 324.835938 61.843758 325.039063 62.890617 325.445313 63.703125 C 326.195313 65.203133 327.59375 65.953125 329.640625 65.953125 C 332.578125 65.953125 334.578125 64.64064 335.640625 62.015625 C 336.21875 60.609367 336.507813 58.679703 336.507813 56.226563 L 336.507813 43.898438 L 340.726563 43.898438 L 340.726563 69 L 336.742188 69 L 336.789063 65.296875 C 336.242188 66.250008 335.5625 67.054688 334.75 67.710938 C 333.140625 69.023445 331.1875 69.679688 328.890625 69.679688 C 325.312469 69.679688 322.875 68.48439 321.578125 66.09375 C 320.875 64.812492 320.523438 63.10157 320.523438 60.960938 L 320.523438 43.898438 Z M 306.835938 54.890625 L 301.609375 39.679688 L 296.054688 54.890625 Z M 299.171875 34.570313 L 304.445313 34.570313 L 316.9375 69 L 311.828125 69 L 308.335938 58.6875 L 294.71875 58.6875 L 290.992188 69 L 286.210938 69 Z M 272.359375 43.335938 C 274.140625 43.335938 275.867188 43.753899 277.539063 44.589844 C 279.210938 45.425789 280.484375 46.507805 281.359375 47.835938 C 282.203125 49.10157 282.765625 50.578117 283.046875 52.265625 C 283.296875 53.421883 283.421875 55.26561 283.421875 57.796875 L 265.023438 57.796875 C 265.101563 60.343765 265.703125 62.386711 266.828125 63.925781 C 267.953125 65.464851 269.695313 66.234375 272.054688 66.234375 C 274.257813 66.234375 276.015625 65.50782 277.328125 64.054688 C 278.078125 63.21093 278.609375 62.234383 278.921875 61.125 L 283.070313 61.125 C 282.960938 62.046883 282.597656 63.074211 281.980469 64.207031 C 281.363281 65.339851 280.671875 66.265625 279.90625 66.984375 C 278.625 68.234383 277.039063 69.078125 275.148438 69.515625 C 274.132813 69.765625 272.984375 69.890625 271.703125 69.890625 C 268.578094 69.890625 265.929688 68.753914 263.757813 66.480469 C 261.585938 64.207024 260.5 61.02346 260.5 56.929688 C 260.5 52.898415 261.59375 49.625015 263.78125 47.109375 C 265.96875 44.593735 268.828094 43.335938 272.359375 43.335938 Z M 279.085938 54.445313 C 278.914063 52.61718 278.515625 51.156258 277.890625 50.0625 C 276.734375 48.031242 274.804688 47.015625 272.101563 47.015625 C 270.164063 47.015625 268.539063 47.714836 267.226563 49.113281 C 265.914063 50.511726 265.21875 52.289055 265.140625 54.445313 Z M 244.070313 43.453125 C 246.039078 43.453125 247.757813 43.937492 249.226563 44.90625 C 250.023438 45.453125 250.835938 46.249992 251.664063 47.296875 L 251.664063 44.132813 L 255.554688 44.132813 L 255.554688 66.960938 C 255.554688 70.148453 255.085938 72.664055 254.148438 74.507813 C 252.398438 77.914078 249.093781 79.617188 244.234375 79.617188 C 241.531235 79.617188 239.257828 79.011726 237.414063 77.800781 C 235.570297 76.589836 234.539063 74.695328 234.320313 72.117188 L 238.609375 72.117188 C 238.8125 73.242195 239.21875 74.109375 239.828125 74.71875 C 240.78125 75.656258 242.281235 76.125 244.328125 76.125 C 247.562515 76.125 249.679688 74.984383 250.679688 72.703125 C 251.273438 71.359367 251.546875 68.960953 251.5 65.507813 C 250.65625 66.78907 249.640625 67.742188 248.453125 68.367188 C 247.265625 68.992188 245.695328 69.304688 243.742188 69.304688 C 241.023422 69.304688 238.644547 68.339851 236.605469 66.410156 C 234.566391 64.480461 233.546875 61.289085 233.546875 56.835938 C 233.546875 52.63279 234.574203 49.351578 236.628906 46.992188 C 238.683609 44.632797 241.164047 43.453125 244.070313 43.453125 Z M 251.664063 56.34375 C 251.664063 53.23436 251.023438 50.929695 249.742188 49.429688 C 248.460938 47.92968 246.82814 47.179688 244.84375 47.179688 C 241.874985 47.179688 239.84375 48.570297 238.75 51.351563 C 238.171875 52.835945 237.882813 54.781235 237.882813 57.1875 C 237.882813 60.01564 238.457031 62.167961 239.605469 63.644531 C 240.753906 65.121101 242.29686 65.859375 244.234375 65.859375 C 247.26564 65.859375 249.398438 64.492203 250.632813 61.757813 C 251.320313 60.21093 251.664063 58.406258 251.664063 56.34375 Z M 211.75 62.320313 C 211.75 63.53907 212.195313 64.5 213.085938 65.203125 C 213.976563 65.90625 215.03125 66.257813 216.25 66.257813 C 217.734375 66.257813 219.171875 65.914063 220.5625 65.226563 C 222.906265 64.08593 224.078125 62.218765 224.078125 59.625 L 224.078125 56.226563 C 223.5625 56.554688 222.898438 56.828125 222.085938 57.046875 C 221.273438 57.265625 220.476563 57.421875 219.695313 57.515625 L 217.140625 57.84375 C 215.60936 58.046875 214.460938 58.367188 213.695313 58.804688 C 212.398438 59.539063 211.75 60.71093 211.75 62.320313 Z M 221.96875 53.789063 C 222.9375 53.664063 223.585938 53.257813 223.914063 52.570313 C 224.101563 52.195313 224.195313 51.65625 224.195313 50.953125 C 224.195313 49.515617 223.683594 48.472656 222.660156 47.824219 C 221.636719 47.175781 220.17189 46.851563 218.265625 46.851563 C 216.062485 46.851563 214.5 47.445305 213.578125 48.632813 C 213.0625 49.289063 212.726563 50.265617 212.570313 51.5625 L 208.632813 51.5625 C 208.710938 48.468735 209.714828 46.316414 211.644531 45.105469 C 213.574234 43.894524 215.812485 43.289063 218.359375 43.289063 C 221.312515 43.289063 223.710922 43.851555 225.554688 44.976563 C 227.382828 46.10157 228.296875 47.851547 228.296875 50.226563 L 228.296875 64.6875 C 228.296875 65.125 228.386719 65.476563 228.566406 65.742188 C 228.746094 66.007813 229.125 66.140625 229.703125 66.140625 C 229.890625 66.140625 230.101563 66.128906 230.335938 66.105469 C 230.570313 66.082031 230.820313 66.046875 231.085938 66 L 231.085938 69.117188 C 230.429688 69.304688 229.929688 69.421875 229.585938 69.46875 C 229.242188 69.515625 228.773438 69.539063 228.179688 69.539063 C 226.726563 69.539063 225.671875 69.023445 225.015625 67.992188 C 224.671875 67.445313 224.429688 66.671883 224.289063 65.671875 C 223.429688 66.796883 222.195328 67.77343 220.585938 68.601563 C 218.976547 69.429695 217.20314 69.84375 215.265625 69.84375 C 212.937485 69.84375 211.035156 69.136726 209.558594 67.722656 C 208.082031 66.308586 207.34375 64.53907 207.34375 62.414063 C 207.34375 60.085922 208.070313 58.281258 209.523438 57 C 210.976563 55.718742 212.882797 54.929688 215.242188 54.632813 Z M 192.648438 43.898438 L 196.65625 43.898438 L 196.65625 48.234375 C 196.984375 47.390617 197.789063 46.363289 199.070313 45.152344 C 200.351563 43.941399 201.82811 43.335938 203.5 43.335938 C 203.578125 43.335938 203.710938 43.34375 203.898438 43.359375 C 204.085938 43.375 204.40625 43.40625 204.859375 43.453125 L 204.859375 47.90625 C 204.609375 47.859375 204.378906 47.828125 204.167969 47.8125 C 203.957031 47.796875 203.726563 47.789063 203.476563 47.789063 C 201.351547 47.789063 199.71875 48.472649 198.578125 49.839844 C 197.4375 51.207039 196.867188 52.781242 196.867188 54.5625 L 196.867188 69 L 192.648438 69 Z M 175.796875 66.28125 C 178.593765 66.28125 180.511719 65.222664 181.550781 63.105469 C 182.589844 60.988274 183.109375 58.632828 183.109375 56.039063 C 183.109375 53.695297 182.734375 51.78907 181.984375 50.320313 C 180.796875 48.007797 178.750015 46.851563 175.84375 46.851563 C 173.26561 46.851563 171.390625 47.83593 170.21875 49.804688 C 169.046875 51.773445 168.460938 54.148422 168.460938 56.929688 C 168.460938 59.601578 169.046875 61.828117 170.21875 63.609375 C 171.390625 65.390633 173.249985 66.28125 175.796875 66.28125 Z M 175.960938 43.171875 C 179.195328 43.171875 181.929672 44.249992 184.164063 46.40625 C 186.398453 48.562508 187.515625 51.734352 187.515625 55.921875 C 187.515625 59.968773 186.531265 63.312485 184.5625 65.953125 C 182.593735 68.593765 179.539078 69.914063 175.398438 69.914063 C 171.945297 69.914063 169.20314 68.746109 167.171875 66.410156 C 165.14061 64.074203 164.125 60.937523 164.125 57 C 164.125 52.781227 165.195297 49.42189 167.335938 46.921875 C 169.476578 44.42186 172.351547 43.171875 175.960938 43.171875 Z M 153.34375 36.890625 L 157.609375 36.890625 L 157.609375 43.898438 L 161.617188 43.898438 L 161.617188 47.34375 L 157.609375 47.34375 L 157.609375 63.726563 C 157.609375 64.60157 157.90625 65.1875 158.5 65.484375 C 158.828125 65.65625 159.375 65.742188 160.140625 65.742188 C 160.34375 65.742188 160.5625 65.738281 160.796875 65.730469 C 161.03125 65.722656 161.304688 65.703125 161.617188 65.671875 L 161.617188 69 C 161.132813 69.140625 160.628906 69.242188 160.105469 69.304688 C 159.582031 69.367188 159.015625 69.398438 158.40625 69.398438 C 156.437485 69.398438 155.101563 68.894539 154.398438 67.886719 C 153.695313 66.878899 153.34375 65.57032 153.34375 63.960938 L 153.34375 47.34375 L 149.945313 47.34375 L 149.945313 43.898438 L 153.34375 43.898438 Z M 124.09375 57.890625 C 124.203125 59.843758 124.664063 61.42968 125.476563 62.648438 C 127.023453 64.929695 129.749985 66.070313 133.65625 66.070313 C 135.406265 66.070313 137 65.820313 138.4375 65.320313 C 141.218765 64.351555 142.609375 62.617203 142.609375 60.117188 C 142.609375 58.24218 142.023438 56.906258 140.851563 56.109375 C 139.664063 55.328117 137.804703 54.648438 135.273438 54.070313 L 130.609375 53.015625 C 127.562485 52.328125 125.40625 51.57032 124.140625 50.742188 C 121.953117 49.30468 120.859375 47.156265 120.859375 44.296875 C 120.859375 41.20311 121.92968 38.66407 124.070313 36.679688 C 126.210953 34.695305 129.242172 33.703125 133.164063 33.703125 C 136.773453 33.703125 139.839828 34.574211 142.363281 36.316406 C 144.886734 38.058601 146.148438 40.843727 146.148438 44.671875 L 141.765625 44.671875 C 141.53125 42.828117 141.03125 41.41407 140.265625 40.429688 C 138.84375 38.632805 136.429703 37.734375 133.023438 37.734375 C 130.273422 37.734375 128.296875 38.312492 127.09375 39.46875 C 125.890625 40.625008 125.289063 41.968742 125.289063 43.5 C 125.289063 45.187508 125.992188 46.421867 127.398438 47.203125 C 128.320313 47.703125 130.406235 48.328125 133.65625 49.078125 L 138.484375 50.179688 C 140.812515 50.710938 142.609375 51.437492 143.875 52.359375 C 146.062515 53.968758 147.15625 56.304672 147.15625 59.367188 C 147.15625 63.179703 145.769547 65.906242 142.996094 67.546875 C 140.222641 69.187508 137.000015 70.007813 133.328125 70.007813 C 129.04686 70.007813 125.695328 68.91407 123.273438 66.726563 C 120.851547 64.55468 119.664063 61.60939 119.710938 57.890625 Z M 97.023438 62.320313 C 97.023438 63.53907 97.468742 64.5 98.359375 65.203125 C 99.250008 65.90625 100.30468 66.257813 101.523438 66.257813 C 103.00782 66.257813 104.445305 65.914063 105.835938 65.226563 C 108.179703 64.08593 109.351563 62.218765 109.351563 59.625 L 109.351563 56.226563 C 108.835938 56.554688 108.171883 56.828125 107.359375 57.046875 C 106.546867 57.265625 105.750008 57.421875 104.96875 57.515625 L 102.414063 57.84375 C 100.882805 58.046875 99.734383 58.367188 98.96875 58.804688 C 97.671867 59.539063 97.023438 60.71093 97.023438 62.320313 Z M 107.242188 53.789063 C 108.210945 53.664063 108.859375 53.257813 109.1875 52.570313 C 109.375 52.195313 109.46875 51.65625 109.46875 50.953125 C 109.46875 49.515617 108.957039 48.472656 107.933594 47.824219 C 106.910149 47.175781 105.44532 46.851563 103.539063 46.851563 C 101.33593 46.851563 99.773445 47.445305 98.851563 48.632813 C 98.335938 49.289063 98 50.265617 97.84375 51.5625 L 93.90625 51.5625 C 93.984375 48.468735 94.988274 46.316414 96.917969 45.105469 C 98.847664 43.894524 101.085922 43.289063 103.632813 43.289063 C 106.585953 43.289063 108.984367 43.851555 110.828125 44.976563 C 112.656258 46.10157 113.570313 47.851547 113.570313 50.226563 L 113.570313 64.6875 C 113.570313 65.125 113.660156 65.476563 113.839844 65.742188 C 114.019531 66.007813 114.398438 66.140625 114.976563 66.140625 C 115.164063 66.140625 115.375 66.128906 115.609375 66.105469 C 115.84375 66.082031 116.09375 66.046875 116.359375 66 L 116.359375 69.117188 C 115.703125 69.304688 115.203125 69.421875 114.859375 69.46875 C 114.515625 69.515625 114.046875 69.539063 113.453125 69.539063 C 111.999992 69.539063 110.945313 69.023445 110.289063 67.992188 C 109.945313 67.445313 109.703125 66.671883 109.5625 65.671875 C 108.703117 66.796883 107.468758 67.77343 105.859375 68.601563 C 104.249992 69.429695 102.47657 69.84375 100.539063 69.84375 C 98.210922 69.84375 96.308601 69.136726 94.832031 67.722656 C 93.355461 66.308586 92.617188 64.53907 92.617188 62.414063 C 92.617188 60.085922 93.343742 58.281258 94.796875 57 C 96.250008 55.718742 98.156235 54.929688 100.515625 54.632813 Z M 81.296875 36.890625 L 85.5625 36.890625 L 85.5625 43.898438 L 89.570313 43.898438 L 89.570313 47.34375 L 85.5625 47.34375 L 85.5625 63.726563 C 85.5625 64.60157 85.859375 65.1875 86.453125 65.484375 C 86.78125 65.65625 87.328117 65.742188 88.09375 65.742188 C 88.296875 65.742188 88.515625 65.738281 88.75 65.730469 C 88.984375 65.722656 89.257813 65.703125 89.570313 65.671875 L 89.570313 69 C 89.085938 69.140625 88.582031 69.242188 88.058594 69.304688 C 87.535156 69.367188 86.96875 69.398438 86.359375 69.398438 C 84.390617 69.398438 83.054688 68.894539 82.351563 67.886719 C 81.648438 66.878899 81.296875 65.57032 81.296875 63.960938 L 81.296875 47.34375 L 77.898438 47.34375 L 77.898438 43.898438 L 81.296875 43.898438 Z M 56.992188 62.320313 C 56.992188 63.53907 57.437496 64.5 58.328125 65.203125 C 59.218754 65.90625 60.27343 66.257813 61.492188 66.257813 C 62.97657 66.257813 64.414055 65.914063 65.804688 65.226563 C 68.148453 64.08593 69.320313 62.218765 69.320313 59.625 L 69.320313 56.226563 C 68.804688 56.554688 68.140633 56.828125 67.328125 57.046875 C 66.515617 57.265625 65.718758 57.421875 64.9375 57.515625 L 62.382813 57.84375 C 60.851555 58.046875 59.703129 58.367188 58.9375 58.804688 C 57.640617 59.539063 56.992188 60.71093 56.992188 62.320313 Z M 67.210938 53.789063 C 68.179695 53.664063 68.828125 53.257813 69.15625 52.570313 C 69.34375 52.195313 69.4375 51.65625 69.4375 50.953125 C 69.4375 49.515617 68.925789 48.472656 67.902344 47.824219 C 66.878899 47.175781 65.41407 46.851563 63.507813 46.851563 C 61.30468 46.851563 59.742191 47.445305 58.820313 48.632813 C 58.304684 49.289063 57.96875 50.265617 57.8125 51.5625 L 53.875 51.5625 C 53.953125 48.468735 54.95702 46.316414 56.886719 45.105469 C 58.816418 43.894524 61.054672 43.289063 63.601563 43.289063 C 66.554703 43.289063 68.953117 43.851555 70.796875 44.976563 C 72.625008 46.10157 73.539063 47.851547 73.539063 50.226563 L 73.539063 64.6875 C 73.539063 65.125 73.628906 65.476563 73.808594 65.742188 C 73.988281 66.007813 74.367188 66.140625 74.945313 66.140625 C 75.132813 66.140625 75.34375 66.128906 75.578125 66.105469 C 75.8125 66.082031 76.0625 66.046875 76.328125 66 L 76.328125 69.117188 C 75.671875 69.304688 75.171875 69.421875 74.828125 69.46875 C 74.484375 69.515625 74.015625 69.539063 73.421875 69.539063 C 71.968742 69.539063 70.914063 69.023445 70.257813 67.992188 C 69.914063 67.445313 69.671875 66.671883 69.53125 65.671875 C 68.671867 66.796883 67.437508 67.77343 65.828125 68.601563 C 64.218742 69.429695 62.44532 69.84375 60.507813 69.84375 C 58.179676 69.84375 56.277351 69.136726 54.800781 67.722656 C 53.324211 66.308586 52.585938 64.53907 52.585938 62.414063 C 52.585938 60.085922 53.312492 58.281258 54.765625 57 C 56.218758 55.718742 58.124989 54.929688 60.484375 54.632813 Z M 32.875 65.015625 C 34.453133 65.015625 35.749996 64.851563 36.765625 64.523438 C 38.578133 63.914063 40.062492 62.742195 41.21875 61.007813 C 42.140629 59.61718 42.804684 57.835945 43.210938 55.664063 C 43.445313 54.36718 43.5625 53.16407 43.5625 52.054688 C 43.5625 47.78904 42.714851 44.476578 41.019531 42.117188 C 39.324211 39.757797 36.593769 38.578125 32.828125 38.578125 L 24.554688 38.578125 L 24.554688 65.015625 Z M 19.867188 34.570313 L 33.8125 34.570313 C 38.546898 34.570313 42.218739 36.249985 44.828125 39.609375 C 47.156261 42.64064 48.320313 46.523415 48.320313 51.257813 C 48.320313 54.914078 47.63282 58.218735 46.257813 61.171875 C 43.835926 66.390648 39.671906 69 33.765625 69 L 19.867188 69 Z"/>
        <g id="g1" opacity="0.6">
            <path id="Path" fill="#2e3134" fill-rule="evenodd" stroke="none" visibility="hidden" d="M -110.791 133.016998 L -85.148003 133.016998 C -82.938858 133.016998 -81.147995 134.807861 -81.147995 137.016998 L -81.147995 146.031006 C -81.147995 148.240143 -82.938858 150.031006 -85.148003 150.031006 L -110.791 150.031006 C -113.000137 150.031006 -114.791 148.240143 -114.791 146.031006 L -114.791 137.016998 C -114.791 134.807861 -113.000137 133.016998 -110.791 133.016998 Z"/>
            <path id="path1" fill="#2e3134" fill-rule="evenodd" stroke="none" visibility="hidden" d="M -60.327999 133.016998 L -34.706001 133.016998 C -32.496864 133.016998 -30.706001 134.807861 -30.706001 137.016998 L -30.706001 146.031006 C -30.706001 148.240143 -32.496864 150.031006 -34.706001 150.031006 L -60.327999 150.031006 C -62.53714 150.031006 -64.327995 148.240143 -64.327995 146.031006 L -64.327995 137.016998 C -64.327995 134.807861 -62.53714 133.016998 -60.327999 133.016998 Z"/>
            <path id="path2" fill="#2e3134" fill-rule="evenodd" stroke="none" visibility="hidden" d="M -110.816002 98.990005 L -34.695 98.990005 C -32.485863 98.990005 -30.695 100.780861 -30.695 102.990005 L -30.695 112.003998 C -30.695 114.213135 -32.485863 116.003998 -34.695 116.003998 L -110.816002 116.003998 C -113.025139 116.003998 -114.816002 114.213135 -114.816002 112.003998 L -114.816002 102.990005 C -114.816002 100.780861 -113.025139 98.990005 -110.816002 98.990005 Z"/>
            <path id="path3" fill="#2e3134" fill-rule="evenodd" stroke="none" visibility="hidden" d="M -110.791 64.963997 L -68.321999 64.963997 C -66.112862 64.963997 -64.321999 66.75486 -64.321999 68.963997 L -64.321999 77.976997 C -64.321999 80.186142 -66.112862 81.976997 -68.321999 81.976997 L -110.791 81.976997 C -113.000137 81.976997 -114.791 80.186142 -114.791 77.976997 L -114.791 68.963997 C -114.791 66.75486 -113.000137 64.963997 -110.791 64.963997 Z"/>
            <path id="path4" fill="#2e3134" fill-rule="evenodd" stroke="none" visibility="hidden" d="M -43.505997 64.963997 L -34.684998 64.963997 C -32.475861 64.963997 -30.684998 66.75486 -30.684998 68.963997 L -30.684998 77.976997 C -30.684998 80.186142 -32.475861 81.976997 -34.684998 81.976997 L -43.505997 81.976997 C -45.715141 81.976997 -47.505997 80.186142 -47.505997 77.976997 L -47.505997 68.963997 C -47.505997 66.75486 -45.715141 64.963997 -43.505997 64.963997 Z"/>
        </g>
    </g>
</svg>
